# xmcd
# 
# Track frame offsets:
#     150
#     13789
#     28475
#     41704
#     56453
#     67949
#     82316
#     97573
#     108199
#     118024
#     129635
#     146044
#     161364
#     174082
#     188632
#     201133
#     214595
#     227451
#     239236
#     250398
# 
# Disc length: 3534
# 
# Revision: 2
# Processed by: cddbd v1.5.2PL0 Copyright (c) Steve Scherf et al.
# Submitted via: fre:ac v1.0.17
# 
DISCID=130dcc14
DTITLE=misc - Chanson Francaise CD10
DYEAR=2006
DGENRE=Chanson
TTITLE0=01.Charles Aznavour - Plus bleu que tes yeux
TTITLE1=02.Tino Rossi - Petit papa noel.
TTITLE2=03.Mistinguett - C'est vrai
TTITLE3=04.Charles Trenet - Menilmontant
TTITLE4=05.Maurice Chevalier - Fleur de Paris
TTITLE5=06.Edith Piaf - L'accordeoniste
TTITLE6=07.Luis Mariano - Rossignol
TTITLE7=08.Georges Brassens - Le petit cheval
TTITLE8=09.Yves Montand - Dans les plaines du far-west
TTITLE9=10.Charles Trenet - J'ai tamain
TTITLE10=11.Bourvil - Les crayons
TTITLE11=12.Ray Ventura - Ca vaut mieux que d attraper la scarlatine
TTITLE12=13.Damia - Le grand frise
TTITLE13=14.Charles Trenet - Mes jeunes annees
TTITLE14=15.Fernandel - Ignance
TTITLE15=16.Tino Rossi - Vieni vieni
TTITLE16=17.Charles Aznavour - Jezebel
TTITLE17=18.Charles Trenet - La polka du roi
TTITLE18=19.Leo Ferre - A saint germain des pres
TTITLE19=20.Yves Montand - A Paris
EXTD=YEAR: 2006
EXTT0=
EXTT1=
EXTT2=
EXTT3=
EXTT4=
EXTT5=
EXTT6=
EXTT7=
EXTT8=
EXTT9=
EXTT10=
EXTT11=
EXTT12=
EXTT13=
EXTT14=
EXTT15=
EXTT16=
EXTT17=
EXTT18=
EXTT19=
PLAYORDER=
